<svg width="120" height="30" viewBox="0 0 120 30" fill="none" xmlns="http://www.w3.org/2000/svg">
<g opacity="0.6">
<path d="M23.9508 6.14181H11.3897C8.02313 6.14181 4.80139 4.80243 2.42431 2.42535L2.33984 2.34089C3.77575 0.892915 5.76671 0 7.97486 0H29.9961L23.9508 6.14181Z" fill="white"/>
<path d="M0 30V7.97877C0 5.78268 0.892915 3.79172 2.32882 2.34375L2.41328 2.42821C4.79037 4.8053 6.12974 8.02703 6.12974 11.3936V23.9547L0 30Z" fill="white"/>
<path d="M29.9955 0V22.0333C29.9955 24.2294 29.1026 26.2203 27.6667 27.6683C26.4721 26.4737 25.555 25.074 24.9155 23.5536C24.276 22.0212 23.9502 20.3802 23.9502 18.7029V6.14181L29.9955 0Z" fill="#CCCCCC"/>
<path d="M27.6683 27.6706C26.2324 29.1065 24.2414 29.9994 22.0574 29.9994H0L6.14181 23.9541H18.6909C22.0574 23.9541 25.2791 25.2935 27.6562 27.6706H27.6683Z" fill="#CCCCCC"/>
<path d="M40.6112 22.5485C39.5235 22.2512 38.6557 21.8548 37.9961 21.3813L39.1532 18.9367C39.7897 19.3771 40.5302 19.7295 41.4097 19.9938C42.2775 20.2581 43.1454 20.3902 44.0248 20.3902C44.9968 20.3902 45.7142 20.2581 46.1771 19.9828C46.6399 19.7075 46.8713 19.3441 46.8713 18.8926C46.8713 18.5623 46.7325 18.287 46.4663 18.0667C46.1886 17.8465 45.8415 17.6703 45.4133 17.5382C44.9852 17.406 44.4066 17.2629 43.6776 17.0977C42.5552 16.8444 41.6411 16.5912 40.9237 16.3379C40.2062 16.0846 39.5929 15.6772 39.0838 15.1156C38.5747 14.554 38.3201 13.8052 38.3201 12.8692C38.3201 12.0543 38.5515 11.3166 39.0144 10.6559C39.4772 9.99515 40.1715 9.46659 41.1088 9.08118C42.0461 8.69577 43.1801 8.49756 44.5339 8.49756C45.4712 8.49756 46.3969 8.60768 47.2879 8.8169C48.1905 9.02612 48.9658 9.33445 49.6485 9.74188L48.5955 12.2085C47.2301 11.4707 45.8762 11.1073 44.5108 11.1073C43.5619 11.1073 42.8561 11.2505 42.3932 11.5478C41.9419 11.8451 41.7105 12.2305 41.7105 12.704C41.7105 13.1775 41.9767 13.5409 42.4974 13.7722C43.0181 14.0034 43.8281 14.2347 44.9042 14.4659C46.0266 14.7192 46.9408 14.9724 47.6582 15.2257C48.3756 15.479 48.9889 15.8754 49.498 16.426C50.0072 16.9766 50.2618 17.7144 50.2618 18.6504C50.2618 19.4542 50.0303 20.181 49.5559 20.8417C49.0815 21.5024 48.3756 22.0309 47.4383 22.4164C46.5011 22.8018 45.3555 23 44.0132 23C42.8445 23 41.7221 22.8458 40.6344 22.5485H40.6112Z" fill="white"/>
<path d="M58.5153 11.9231L53.7826 22.7586H50.2881L56.8491 8.74072H60.2163L66.8005 22.7586H63.2249L58.5153 11.9231Z" fill="white"/>
<path d="M71.4966 11.3395V15.0394H78.3121V17.6382H71.4966V22.7476H68.083V8.74072H79.2147V11.3395H71.485H71.4966Z" fill="white"/>
<path d="M92.5842 20.1489V22.7476H81.1748V8.74072H92.3065V11.3395H84.5652V14.3787H91.4039V16.9004H84.5652V20.1489H92.5842Z" fill="white"/>
<path d="M106.915 11.9231L102.182 22.7586H98.6875L105.248 8.74072H108.616L115.2 22.7586H111.624L106.915 11.9231Z" fill="white"/>
<path d="M116.49 9.98417C116.108 9.65382 115.923 9.23538 115.923 8.73985C115.923 8.24432 116.108 7.83689 116.49 7.49553C116.872 7.16518 117.358 7 117.959 7C118.561 7 119.059 7.16518 119.429 7.48452C119.811 7.80385 119.996 8.20028 119.996 8.68479C119.996 9.20234 119.811 9.6318 119.429 9.97316C119.047 10.3145 118.561 10.4797 117.959 10.4797C117.358 10.4797 116.86 10.3145 116.49 9.98417ZM116.316 11.9773H119.603V22.7578H116.316V11.9773Z" fill="white"/>
</g>
</svg>
