<svg width="12" height="12" viewBox="0 0 12 12" fill="none" xmlns="http://www.w3.org/2000/svg">
<path d="M1.24139 1.44824C0.555725 1.44824 0 2.00397 0 2.68961C0 3.37526 0.555725 3.93101 1.24139 3.93101C1.92704 3.93101 2.48276 3.37528 2.48276 2.68961C2.48276 2.00395 1.92704 1.44824 1.24139 1.44824ZM1.24139 4.75858C0.555725 4.75858 0 5.31432 0 5.99997C0 6.68563 0.555725 7.24136 1.24139 7.24136C1.92704 7.24136 2.48276 6.68563 2.48276 5.99997C2.48276 5.31432 1.92704 4.75858 1.24139 4.75858ZM1.24139 8.06895C0.555725 8.06895 0 8.62465 0 9.3103C0 9.99597 0.555725 10.5517 1.24139 10.5517C1.92704 10.5517 2.48276 9.99597 2.48276 9.3103C2.48276 8.62465 1.92704 8.06895 1.24139 8.06895ZM4.55173 3.5172H11.1724C11.6296 3.5172 12 3.14685 12 2.68961C12 2.23238 11.6296 1.86203 11.1724 1.86203H4.55173C4.09449 1.86203 3.72414 2.23238 3.72414 2.68961C3.72414 3.14685 4.09449 3.5172 4.55173 3.5172ZM11.1724 5.17238H4.55173C4.09449 5.17238 3.72414 5.54273 3.72414 5.99997C3.72414 6.4572 4.09449 6.82756 4.55173 6.82756H11.1724C11.6296 6.82756 12 6.4572 12 5.99997C12 5.54273 11.6296 5.17238 11.1724 5.17238ZM11.1724 8.48273H4.55173C4.09449 8.48273 3.72414 8.85307 3.72414 9.3103C3.72414 9.76754 4.09449 10.1379 4.55173 10.1379H11.1724C11.6296 10.1379 12 9.76754 12 9.3103C12 8.85307 11.6296 8.48273 11.1724 8.48273Z" fill="#EEEEF0"/>
</svg>
