<svg width="12" height="12" viewBox="0 0 12 12" fill="none" xmlns="http://www.w3.org/2000/svg">
<path d="M6.89775 6.00441L9.81325 3.0889C10.0603 2.84183 10.0603 2.43944 9.81325 2.19237C9.56618 1.94529 9.16379 1.94529 8.91672 2.19237L6.00121 5.10788L3.0857 2.18531C2.83862 1.93823 2.43624 1.93823 2.1821 2.18531C1.92797 2.43238 1.93503 2.84183 2.1821 3.0889L5.09761 6.00441L2.1821 8.91992C1.93503 9.167 1.93503 9.56938 2.1821 9.81646C2.30917 9.94353 2.47154 10 2.6339 10C2.79627 10 2.95863 9.93647 3.0857 9.81646L6.00121 6.90095L8.91672 9.81646C9.04379 9.94353 9.20615 10 9.36852 10C9.53088 10 9.69325 9.93647 9.82031 9.81646C10.0674 9.56938 10.0674 9.167 9.82031 8.91992L6.90481 6.00441H6.89775Z" fill="#F93D6A"/>
</svg>
