<svg width="16" height="16" viewBox="0 0 16 16" fill="none" xmlns="http://www.w3.org/2000/svg">
<path fill-rule="evenodd" clip-rule="evenodd" d="M6.4001 3.2001C4.63279 3.2001 3.2001 4.63279 3.2001 6.4001C3.2001 8.16741 4.63279 9.6001 6.4001 9.6001C8.16741 9.6001 9.6001 8.16741 9.6001 6.4001C9.6001 4.63279 8.16741 3.2001 6.4001 3.2001ZM1.6001 6.4001C1.6001 3.74913 3.74913 1.6001 6.4001 1.6001C9.05106 1.6001 11.2001 3.74913 11.2001 6.4001C11.2001 7.43676 10.8715 8.39667 10.3127 9.18133L14.1658 13.0344C14.4782 13.3468 14.4782 13.8534 14.1658 14.1658C13.8534 14.4782 13.3468 14.4782 13.0344 14.1658L9.18133 10.3127C8.39667 10.8715 7.43676 11.2001 6.4001 11.2001C3.74913 11.2001 1.6001 9.05106 1.6001 6.4001Z" fill="#CDCED7"/>
</svg>
