<svg width="14" height="14" viewBox="0 0 14 14" fill="current" xmlns="http://www.w3.org/2000/svg">
<rect width="14" height="14" rx="3" fill="current"/>
<path d="M6.9707 11.0977C6.4401 11.0977 5.96484 11.0065 5.54492 10.8242C5.12826 10.6419 4.80111 10.3864 4.56348 10.0576C4.32585 9.72884 4.20378 9.35612 4.19727 8.93945H5.87695C5.88021 9.09245 5.92904 9.23079 6.02344 9.35449C6.12109 9.47493 6.25293 9.56934 6.41895 9.6377C6.58822 9.70605 6.77539 9.74023 6.98047 9.74023C7.18555 9.74023 7.36947 9.7028 7.53223 9.62793C7.69499 9.55306 7.82194 9.45052 7.91309 9.32031C8.00423 9.18685 8.04818 9.03711 8.04492 8.87109C8.04818 8.70182 7.99935 8.55046 7.89844 8.41699C7.80078 8.28353 7.65918 8.17936 7.47363 8.10449C7.29134 8.02962 7.07812 7.99219 6.83398 7.99219H6.15039V6.80078H6.83398C7.04557 6.80078 7.23438 6.76497 7.40039 6.69336C7.56641 6.62174 7.69499 6.52246 7.78613 6.39551C7.88053 6.2653 7.92773 6.11719 7.92773 5.95117C7.92773 5.79167 7.88704 5.65007 7.80566 5.52637C7.72754 5.40267 7.61686 5.30664 7.47363 5.23828C7.3304 5.16667 7.16602 5.13086 6.98047 5.13086C6.78841 5.13086 6.61263 5.16667 6.45312 5.23828C6.29688 5.30664 6.17155 5.4043 6.07715 5.53125C5.986 5.65495 5.9388 5.79818 5.93555 5.96094H4.33398C4.34049 5.55078 4.45768 5.18457 4.68555 4.8623C4.91667 4.53678 5.23242 4.28451 5.63281 4.10547C6.03646 3.92318 6.48893 3.83203 6.99023 3.83203C7.48503 3.83203 7.92611 3.91992 8.31348 4.0957C8.70085 4.27148 9.00033 4.514 9.21191 4.82324C9.42676 5.12923 9.53255 5.47266 9.5293 5.85352C9.53255 6.11068 9.47559 6.34342 9.3584 6.55176C9.24121 6.76009 9.07682 6.93099 8.86523 7.06445C8.65365 7.19466 8.41276 7.2793 8.14258 7.31836V7.36719C8.67643 7.42904 9.08659 7.60482 9.37305 7.89453C9.65951 8.18424 9.79948 8.55208 9.79297 8.99805C9.79622 9.39844 9.67741 9.75814 9.43652 10.0771C9.19564 10.3962 8.86035 10.6468 8.43066 10.8291C8.00098 11.0081 7.51432 11.0977 6.9707 11.0977Z" fill="#19191B"/>
</svg>
