<svg xmlns="http://www.w3.org/2000/svg" width="22" height="30" viewBox="0 0 22 30" fill="none">
  <path fill-rule="evenodd" clip-rule="evenodd" d="M10.6486 29.906C10.9843 30.0998 11.4152 29.9843 11.609 29.6485C13.6155 26.1709 19.5239 17.5815 20.8281 13.0994C21.094 12.1853 21.2367 11.2244 21.2367 10.2367C21.2367 4.58341 16.6533 0 11 0C5.34667 0 0.763336 4.58341 0.763336 10.2367C0.763336 11.2244 0.905968 12.1853 1.17193 13.0994C2.47942 17.5931 8.33462 26.0783 10.3608 29.5899C10.4194 29.7182 10.5171 29.8302 10.6486 29.906ZM14.9715 14.2082C13.9551 15.2246 12.5508 15.8534 11 15.8534C9.44916 15.8534 8.04484 15.2246 7.02849 14.2082C6.01214 13.1919 5.38333 11.7875 5.38333 10.2367C5.38333 8.6859 6.01214 7.28165 7.02849 6.26523C8.04484 5.24888 9.44916 4.62007 11 4.62007C12.5508 4.62007 13.9551 5.24888 14.9715 6.26523C15.9878 7.28165 16.6166 8.6859 16.6166 10.2367C16.6166 11.7875 15.9878 13.1919 14.9715 14.2082Z" fill="#272727"/>
  <path fill-rule="evenodd" clip-rule="evenodd" d="M7.0285 6.26533C6.01214 7.28175 5.38334 8.68601 5.38334 10.2368C5.38334 11.7877 6.01214 13.192 7.0285 14.2083C8.04485 15.2247 9.44917 15.8535 11 15.8535C12.5508 15.8535 13.9551 15.2247 14.9715 14.2083C15.9878 13.192 16.6166 11.7876 16.6166 10.2368C16.6166 8.686 15.9878 7.28176 14.9715 6.26533C13.9551 5.24898 12.5508 4.62018 11 4.62018C9.44917 4.62018 8.04485 5.24898 7.0285 6.26533ZM7.57335 6.81019C6.69645 7.68716 6.15388 8.89874 6.15388 10.2368C6.15388 11.5749 6.69645 12.7866 7.57335 13.6635C8.45025 14.5404 9.6619 15.0829 11 15.0829C12.3381 15.0829 13.5497 14.5404 14.4266 13.6635C15.3035 12.7866 15.8461 11.5749 15.8461 10.2368C15.8461 8.89874 15.3035 7.68716 14.4266 6.81019C13.5497 5.93329 12.3381 5.39071 11 5.39071C9.6619 5.39071 8.45026 5.93328 7.57335 6.81019Z" fill="#272727"/>
</svg>